<?xml version="1.0" encoding="iso-8859-1"?>
<!-- Generator: Adobe Illustrator 19.0.0, SVG Export Plug-In . SVG Version: 6.00 Build 0)  -->
<svg version="1.1" id="Capa_1" xmlns="http://www.w3.org/2000/svg" xmlns:xlink="http://www.w3.org/1999/xlink" x="0px" y="0px"
	 viewBox="0 0 444.56 444.56" style="enable-background:new 0 0 444.56 444.56;" xml:space="preserve">
<g>
	<g>
		<g>
			<path d="M222.28,49.678c-8.162-0.024-16.009,3.149-21.86,8.84l-0.32,0.3c-12.233,12.233-12.233,32.067,0,44.3
				c12.233,12.233,32.067,12.233,44.3,0c0.017-0.017,0.034-0.034,0.052-0.052c12.194-12.222,12.17-32.015-0.052-44.208
				C238.54,52.979,230.581,49.676,222.28,49.678z M236.94,95.638c-7.999,7.576-20.526,7.576-28.525,0
				c-8.316-7.877-8.672-21.004-0.795-29.32l0.24-0.26c8.148-7.835,21.062-7.729,29.08,0.24v0.02
				C244.999,74.43,244.999,87.526,236.94,95.638z"/>
			<path d="M428.64,401.498c-1.047-7.938-4.69-15.307-10.36-20.96c-6.776-6.804-15.977-10.638-25.58-10.66h-5.18v-192.62h36.22
				c11.489-0.022,20.798-9.331,20.82-20.82c-0.022-11.489-9.331-20.798-20.82-20.82h-14.16l-91.4-65.78l-92.7-66.72
				c-1.848-1.404-4.397-1.437-6.28-0.08l-92.82,66.8l-91.4,65.78H20.82C9.331,135.64,0.022,144.948,0,156.438
				c0.022,11.489,9.331,20.798,20.82,20.82H57v192.58h-5.18c-18.227,0.071-33.601,13.592-36,31.66
				c-9.272,2.323-15.786,10.641-15.82,20.2c0.022,11.489,9.331,20.798,20.82,20.82h402.82c11.489-0.022,20.798-9.331,20.82-20.82
				C444.434,412.137,437.916,403.815,428.64,401.498z M132.54,78.298l89.74-64.5l89.74,64.5l79.5,57.32H53.04L132.54,78.298z
				 M20.82,166.778c-5.638-0.033-10.198-4.601-10.22-10.24c0.022-5.639,4.582-10.207,10.22-10.24h387.1h15.82
				c5.646,0.022,10.218,4.594,10.24,10.24c-0.022,5.646-4.594,10.218-10.24,10.24H20.82z M376.92,177.258v192.62h-35.2v-192.62
				H376.92z M331.18,369.878h-18.9v-192.62h18.86L331.18,369.878z M301.66,177.258v192.62h-35.2v-192.62H301.66z M255.88,369.878
				h-67.2v-192.62h67.2L255.88,369.878z M178.1,177.258v192.62h-35.2v-192.62H178.1z M132.32,177.258l-0.04,192.62h-18.86v-192.62
				H132.32z M102.84,177.258v192.62h-35.2v-192.62H102.84z M51.86,380.578h340.86c12.173,0.027,22.673,8.552,25.2,20.46H26.66
				C29.208,389.143,39.695,380.628,51.86,380.578z M423.74,432.078H20.82c-5.638-0.033-10.198-4.601-10.22-10.24
				c0.033-5.631,4.589-10.187,10.22-10.22h402.92c5.638,0.022,10.207,4.582,10.24,10.22
				C433.958,427.484,429.386,432.056,423.74,432.078z"/>
		</g>
	</g>
</g>
<g>
</g>
<g>
</g>
<g>
</g>
<g>
</g>
<g>
</g>
<g>
</g>
<g>
</g>
<g>
</g>
<g>
</g>
<g>
</g>
<g>
</g>
<g>
</g>
<g>
</g>
<g>
</g>
<g>
</g>
</svg>
