<svg height="511.99897pt" viewBox="1 1 511.99897 511.99897" width="511.99897pt" xmlns="http://www.w3.org/2000/svg"><path d="m437.019531 74.980469c-48.351562-48.351563-112.640625-74.980469-181.019531-74.980469-48.140625 0-95.050781 13.4375-135.664062 38.863281-11.210938 7.019531-.296876 24.484375 10.933593 17.460938 37.332031-23.371094 80.460938-35.722657 124.730469-35.722657 62.875 0 121.992188 24.484376 166.449219 68.949219 44.464843 44.457031 68.949219 103.570313 68.949219 166.449219s-24.484376 121.992188-68.949219 166.453125c-44.457031 44.460937-103.574219 68.945313-166.449219 68.945313-62.878906 0-121.992188-24.484376-166.453125-68.945313s-68.945313-103.578125-68.945313-166.453125c0-53.65625 18.527344-106.148438 52.171876-147.800781 8.3125-10.289063-7.703126-23.25-16.027344-12.945313-36.59375 45.308594-56.746094 102.394532-56.746094 160.746094 0 68.378906 26.628906 132.667969 74.980469 181.019531 48.351562 48.351563 112.640625 74.980469 181.019531 74.980469s132.667969-26.628906 181.019531-74.980469c48.351563-48.351562 74.980469-112.640625 74.980469-181.019531s-26.628906-132.667969-74.980469-181.019531zm0 0"/><path d="m91.59375 360.140625c45.96875 72.429687 136.910156 106.789063 219.191406 82.605469 68.789063-20.210938 122.222656-78.699219 136.132813-149.027344 17.121093-86.535156-27.949219-175.734375-107.46875-213.527344-71.792969-34.125-159.214844-20.140625-216.914063 34.316406-66.878906 63.117188-80.382812 167.734376-30.941406 245.632813zm22.15625-4.234375 56.679688-57.105469 6.535156 6.71875c3.464844 3.5625 5.375 8.261719 5.375 13.230469v44.835938l-31.144532 31.144531c-14.476562-10.957031-27.027343-23.96875-37.445312-38.824219zm90.84375-156.675781c3.351562.628906 6.414062 2.210937 8.863281 4.578125l45.203125 43.640625c3.46875 3.347656.941406 9.289062-3.753906 9.289062-8.5625 0-16.859375-2.5-24-7.230469l-25.015625-16.570312c-11.027344-7.304688-22.417969 9.863281-11.375 17.175781l25.015625 16.570313c9.519531 6.308594 20.445312 9.914062 31.792969 10.542968 2.144531 8.113282 4.109375 23.804688-5.664063 40.394532-6.699218 11.363281 10.96875 21.964844 17.746094 10.457031 13.464844-22.847656 10.855469-44.621094 7.710938-56.417969 2.621093-2.09375 4.859374-4.699218 6.539062-7.730468 4.410156-7.964844 4.222656-17.484376-.011719-25.167969 8.292969 2.15625 17.117188.957031 24.433594-3.574219 4.210937 5.402344 10.226563 9.445312 17.402344 11.089844 5.582031 1.277344 11 1.773437 16.628906.351562-1.015625 4.988282-2.246094 10.121094-3.675781 15.261719-4.925782 17.714844-10.242188 28.625-13.300782 32.582031-7.386718 9.570313-11.457031 21.589844-11.457031 33.847656v42.613282c0 6.773437-5.507812 12.28125-12.277343 12.28125h-80.183594c-6.769532 0-12.277344-5.507813-12.277344-12.28125 0-17.394532 0-34.789063 0-52.183594 0-10.367188-3.976562-20.164062-11.203125-27.59375l-33.5625-34.507812c-6.378906-6.558594-6.167969-17.59375.507813-23.902344l23.445312-22.144532c6.472656-5.996093 12.488281-13.242187 22.46875-11.371093zm-13.699219-19.398438 9.742188-43.300781c3.011719-13.117188 24.914062-8.386719 22.238281 4.882812l-8.957031 39.042969c-7.367188-2.566406-15.523438-2.785156-23.023438-.625zm41.496094 13.613281 10.53125-47.210937c1.070313-4.671875 1.75-9.277344 6.183594-12.09375 8.269531-5.261719 19.226562 2.449219 17.179687 12.027344l-12.460937 54.3125c-.851563 3.425781-3.199219 6.175781-6.28125 7.597656zm117.179687-22.320312-10.984374 47.875c-3.023438 13.179688-25.117188 8.289062-22.222657-4.984375l11.03125-48.074219c3.136719-13.136718 25.226563-8.109375 22.175781 5.183594zm-42.140624-23.734375c2.777343 4.433594.914062 9.429687-.144532 14.035156l-10.980468 47.871094c-3.519532 15.324219-25.851563 10.933594-22.347657-4.410156l12.378907-53.941407c2.171874-9.503906 15.65625-12.226562 21.09375-3.554687zm-51.429688 282.605469c-30.96875 0-60.933594-8.101563-87.410156-23.527344l18.507812-18.507812c5.773438 9.496093 16.214844 15.855468 28.121094 15.855468h80.179688c18.132812 0 32.878906-14.75 32.878906-32.878906v-42.617188c0-7.722656 2.546875-15.273437 7.164062-21.257812 12.277344-15.902344 24.699219-60.988281 24.609375-89.339844 0-.039062-.007812-.078125-.007812-.121094l.796875-3.46875c.28125-.226562.554687-.46875.816406-.730468l44.8125-44.8125c15.429688 26.472656 23.527344 56.441406 23.527344 87.40625 0 95.945312-78.054688 174-173.996094 174zm138.949219-279.023438-25.460938 25.460938c5.253907-22.625-15.269531-42.691406-37.808593-38.414063l24.46875-24.472656c14.847656 10.417969 27.851562 22.960937 38.800781 37.425781zm-138.949219-68.96875c28.789062 0 56.894531 7.066406 82.03125 20.527344l-23.679688 23.679688c-9.84375-5.753907-23.011718-6.371094-32.988281-.730469-4.382812-6.285157-11.019531-11.027344-19.054687-12.871094-9.289063-2.132813-19.191406.0625-26.734375 5.875-4.082031-4.460937-9.503907-7.78125-15.832031-9.234375-17.050782-4.628906-35.152344 5.097656-39.195313 22.71875l-14.800781 65.769531-21.210938 20.03125c-7.445312 7.03125-11.714844 16.9375-11.714844 27.179688 0 9.789062 3.757813 19.046875 10.585938 26.0625l12.660156 13.019531-53.558594 53.953125c-13.445312-25.125-20.503906-53.214844-20.503906-81.984375 0-95.941406 78.054688-173.996094 173.996094-173.996094zm0 0"/><path d="m84.601562 76.675781c2.15625 5.175781 8.261719 7.726563 13.453126 5.570313 5.175781-2.148438 7.722656-8.269532 5.574218-13.453125-2.15625-5.1875-8.265625-7.714844-13.457031-5.574219-5.203125 2.148438-7.699219 8.261719-5.570313 13.457031zm0 0"/></svg>