<svg height="60pt" viewBox="-3 0 60 60.043499" width="60pt" xmlns="http://www.w3.org/2000/svg"><path d="m25.023438 13h16v2h-16zm0 0"/><path d="m25.023438 18h16v2h-16zm0 0"/><path d="m5.023438 26h17v2h-17zm0 0"/><path d="m5.023438 31h13v2h-13zm0 0"/><path d="m22.023438 10h-17v12h17zm-2 10h-13v-8h13zm0 0"/><path d="m46.023438 28.582031v-21.582031h3.078124l-.179687-1.160156c-.230469-1.4375-.914063-2.761719-1.949219-3.78125-1.304687-1.324219-3.089844-2.0664065-4.949218-2.058594h-35c-3.867188.00390625-6.9960942 3.136719-7.0000005 7v50h27.3593745c5.074219 3.53125 11.667969 4.027344 17.214844 1.292969 5.550782-2.730469 9.175782-8.261719 9.472656-14.4375.292969-6.175781-2.789062-12.027344-8.046874-15.273438zm-4-26.582031c1.988281.007812 3.785156 1.183594 4.589843 3h-32.882812c-.320313-1.117188-.925781-2.128906-1.757813-2.941406-.023437-.019532-.046875-.042969-.070312-.058594zm-40 53v-48c0-2.023438 1.21875-3.847656 3.089843-4.621094 1.867188-.769531 4.019531-.339844 5.449219 1.089844.734375.726562 1.21875 1.671875 1.378906 2.691406l.140625.839844h31.941407v20.511719c-7.480469-3.386719-16.308594-.941407-20.980469 5.808593-4.671875 6.746094-3.851563 15.871094 1.949219 21.679688zm44 0c-.320313.230469-.640626.460938-.980469.671875-.179688.109375-.359375.21875-.550781.328125-.667969.390625-1.367188.726562-2.089844 1-4.820313 1.851562-10.25 1.09375-14.378906-2-.230469-.167969-.453126-.351562-.660157-.53125-4.816406-4.058594-6.585937-10.695312-4.425781-16.609375 2.160156-5.917969 7.785156-9.855469 14.085938-9.859375 2.4375-.011719 4.84375.582031 7 1.730469l.058593.03125c4.527344 2.410156 7.507813 6.972656 7.898438 12.085937.394531 5.113282-1.855469 10.074219-5.957031 13.152344zm0 0"/><path d="m42.671875 43 5.660156-5.660156-5.648437-5.648438-5.660156 5.660156-5.660157-5.660156-5.652343 5.648438 5.660156 5.660156-5.660156 5.660156 5.652343 5.648438 5.660157-5.660156 5.660156 5.660156 5.648437-5.648438zm.011719 8.488281-5.660156-5.65625-5.660157 5.65625-2.832031-2.828125 5.660156-5.660156-5.660156-5.660156 2.832031-2.828125 5.660157 5.660156 5.660156-5.660156 2.828125 2.828125-5.660157 5.660156 5.660157 5.660156zm0 0"/><path d="m5.023438 36h13v2h-13zm0 0"/></svg>