<svg height="496pt" viewBox="0 0 496 496" width="496pt" xmlns="http://www.w3.org/2000/svg"><path d="m248 48c-13.230469 0-24 10.769531-24 24s10.769531 24 24 24 24-10.769531 24-24-10.769531-24-24-24zm0 32c-4.40625 0-8-3.59375-8-8s3.59375-8 8-8 8 3.59375 8 8-3.59375 8-8 8zm0 0"/><path d="m96 168c4.40625 0 8 3.59375 8 8h16c0-10.414062-6.710938-19.214844-16-22.527344v-9.472656h-16v9.472656c-9.289062 3.3125-16 12.113282-16 22.527344 0 13.230469 10.769531 24 24 24 4.40625 0 8 3.59375 8 8s-3.59375 8-8 8-8-3.59375-8-8h-16c0 10.414062 6.710938 19.214844 16 22.527344v9.472656h16v-9.472656c9.289062-3.3125 16-12.113282 16-22.527344 0-13.230469-10.769531-24-24-24-4.40625 0-8-3.59375-8-8s3.59375-8 8-8zm0 0"/><path d="m400 224c4.40625 0 8 3.59375 8 8h16c0-10.414062-6.710938-19.214844-16-22.527344v-9.472656h-16v9.472656c-9.289062 3.3125-16 12.113282-16 22.527344 0 13.230469 10.769531 24 24 24 4.40625 0 8 3.59375 8 8s-3.59375 8-8 8-8-3.59375-8-8h-16c0 10.414062 6.710938 19.214844 16 22.527344v9.472656h16v-9.472656c9.289062-3.3125 16-12.113282 16-22.527344 0-13.230469-10.769531-24-24-24-4.40625 0-8-3.59375-8-8s3.59375-8 8-8zm0 0"/><path d="m414.230469 117.183594 55.066406 10.441406c1.296875.246094 2.613281.375 3.933594.375h1.640625c11.648437 0 21.128906-9.480469 21.128906-21.128906 0-10.136719-7.230469-18.863282-17.183594-20.757813l-171.632812-32.546875 1.601562-9.621094c1.167969-6.976562-.792968-14.066406-5.359375-19.457031-4.570312-5.390625-11.25-8.488281-18.3125-8.488281h-74.226562c-7.0625 0-13.742188 3.097656-18.3125 8.488281-1.679688 1.984375-2.878907 4.253907-3.832031 6.617188l-162.046876-30.738281c-1.289062-.238282-2.605468-.367188-3.925781-.367188h-1.640625c-11.648437 0-21.128906 9.480469-21.128906 21.128906 0 10.136719 7.230469 18.871094 17.183594 20.757813l67.328125 12.769531-57.824219 137.34375h-20.933594l20 80h140.492188l20-80h-20.933594l-55.832031-132.609375 82.925781 15.730469 8.816406 52.878906h14.777344v304h-44.472656c-10.34375 0-19.496094 6.59375-22.765625 16.40625l-15.859375 47.59375h230.195312l-15.859375-47.59375c-3.269531-9.8125-12.421875-16.40625-22.765625-16.40625h-44.472656v-304h14.777344l5.40625-32.441406 87.6875 16.632812-57.183594 135.808594h-20.933594l20 80h140.492188l20-80h-20.933594zm-248.476563 90.816406-12 48h-115.507812l-12-48h29.753906v-16h-11.953125l51.953125-123.375 51.953125 123.375h-11.953125v16zm-145.585937-181.832031c-2.414063-.464844-4.167969-2.574219-4.167969-5.039063 0-2.824218 2.304688-5.128906 5.128906-5.128906h1.640625c.320313 0 .636719.03125.949219.089844l164.042969 31.109375 1.847656 11.105469zm311.886719 427.304687 8.847656 26.527344h-185.804688l8.839844-26.527344c1.09375-3.273437 4.140625-5.472656 7.589844-5.472656h152.9375c3.457031 0 6.503906 2.199219 7.589844 5.472656zm-68.054688-21.472656h-32v-304h32zm-49.222656-320-11.785156-70.6875c-.390626-2.351562.238281-4.664062 1.792968-6.488281 1.542969-1.824219 3.710938-2.824219 6.101563-2.824219h74.226562c2.390625 0 4.558594 1 6.101563 2.832031 1.546875 1.824219 2.175781 4.128907 1.792968 6.488281l-11.785156 70.679688zm89.773437-42.648438 171.28125 32.480469c2.414063.464844 4.167969 2.574219 4.167969 5.039063 0 2.824218-2.304688 5.128906-5.128906 5.128906h-1.640625c-.320313 0-.636719-.03125-.949219-.089844l-169.464844-32.140625zm153.203125 242.648438h-115.507812l-12-48h29.753906v-16h-11.953125l51.953125-123.375 51.953125 123.375h-11.953125v16h29.753906zm0 0"/></svg>